name rise45.9887peak57.8056fall74.9286.mot
datacolumns 19
datarows 23
range 19.37326600000000 19.40992700000000
endheader
time	ground_force1_vx	ground_force1_vy	ground_force1_vz	ground_force1_px	ground_force1_py	ground_force1_pz	ground_force2_vx	ground_force2_vy	ground_force2_vz	ground_force2_px	ground_force2_py	ground_force2_pz	ground_torque1_x	ground_torque1_y	ground_torque1_z	ground_torque2_x	ground_torque2_y	ground_torque2_z	
19.37326600000000	-6.89545500000000	42.37827400000000	-11.95847000000000	0.26737100000000	0.00000000000000	0.08430300000000	-57.58949400000000	798.77945399999999	-58.95500900000000	0.08026700000000	0.00000000000000	-0.09935600000000	0.00000000000000	-7.12237000000000	0.00000000000000	0.00000000000000	-18.72848800000000	0.00000000000000	
19.37492900000000	-7.47915400000000	49.78491800000000	-13.49697200000000	0.27312600000000	0.00000000000000	0.08547900000000	-58.40306500000000	796.59552099999996	-58.65164500000000	0.07935100000000	0.00000000000000	-0.09926000000000	0.00000000000000	-8.14909300000000	0.00000000000000	0.00000000000000	-18.75843200000000	0.00000000000000	
19.37659700000000	-7.90854600000000	57.31361100000000	-14.91265200000000	0.27843100000000	0.00000000000000	0.08654100000000	-59.23080600000000	794.27214000000004	-58.32172000000000	0.07843800000000	0.00000000000000	-0.09916000000000	0.00000000000000	-9.12452700000000	0.00000000000000	0.00000000000000	-18.79145400000000	0.00000000000000	
19.37826200000000	-8.16410200000000	64.86918799999999	-16.17384900000000	0.28335700000000	0.00000000000000	0.08751000000000	-60.07164300000000	791.80622600000004	-57.96505300000000	0.07753100000000	0.00000000000000	-0.09905600000000	0.00000000000000	-10.02771400000000	0.00000000000000	0.00000000000000	-18.82740100000000	0.00000000000000	
19.37992900000000	-8.23455300000000	72.37874800000000	-17.25915600000000	0.28796100000000	0.00000000000000	0.08839900000000	-60.92440300000000	789.19468500000005	-57.58150100000000	0.07662900000000	0.00000000000000	-0.09894800000000	0.00000000000000	-10.84349500000000	0.00000000000000	0.00000000000000	-18.86609500000000	0.00000000000000	
19.38159300000000	-8.11670500000000	79.79400800000001	-18.15761000000000	0.29228500000000	0.00000000000000	0.08922000000000	-61.78781400000000	786.43441900000005	-57.17096200000000	0.07573500000000	0.00000000000000	-0.09883500000000	0.00000000000000	-11.56284000000000	0.00000000000000	0.00000000000000	-18.90733800000000	0.00000000000000	
19.38326400000000	-7.81464000000000	87.09123200000001	-18.86800400000000	0.29636700000000	0.00000000000000	0.08998300000000	-62.66051100000000	783.52233999999999	-56.73337800000000	0.07484900000000	0.00000000000000	-0.09871800000000	0.00000000000000	-12.18262900000000	0.00000000000000	0.00000000000000	-18.95090700000000	0.00000000000000	
19.38492900000000	-7.33845100000000	94.26915000000000	-19.39751100000000	0.30023500000000	0.00000000000000	0.09069500000000	-63.54102900000000	780.45537300000001	-56.26873300000000	0.07397100000000	0.00000000000000	-0.09859700000000	0.00000000000000	-12.70497800000000	0.00000000000000	0.00000000000000	-18.99656000000000	0.00000000000000	
19.38659500000000	-6.70271000000000	101.34538499999999	-19.75986600000000	0.30391300000000	0.00000000000000	0.09136300000000	-64.42781300000000	777.23046599999998	-55.77705700000000	0.07310400000000	0.00000000000000	-0.09847200000000	0.00000000000000	-13.13624600000000	0.00000000000000	0.00000000000000	-19.04402900000000	0.00000000000000	
19.38825800000000	-5.92483800000000	108.35195500000000	-19.97332600000000	0.30742200000000	0.00000000000000	0.09199200000000	-65.31921800000001	773.84460500000000	-55.25842300000000	0.07224800000000	0.00000000000000	-0.09834100000000	0.00000000000000	-13.48587000000000	0.00000000000000	0.00000000000000	-19.09302800000000	0.00000000000000	
19.38993200000000	-5.02352400000000	115.33036000000000	-20.05860700000000	0.31077700000000	0.00000000000000	0.09258700000000	-66.21350800000000	770.29481899999996	-54.71295200000000	0.07140400000000	0.00000000000000	-0.09820700000000	0.00000000000000	-13.76513500000000	0.00000000000000	0.00000000000000	-19.14324600000000	0.00000000000000	
19.39159400000000	-4.01732000000000	122.32675300000000	-20.03699200000000	0.31399300000000	0.00000000000000	0.09315100000000	-67.10886499999999	766.57819199999994	-54.14081200000000	0.07057400000000	0.00000000000000	-0.09806700000000	0.00000000000000	-13.98601100000000	0.00000000000000	0.00000000000000	-19.19435500000000	0.00000000000000	
19.39327500000000	-2.92349000000000	129.38755300000000	-19.92871000000000	0.31708000000000	0.00000000000000	0.09368800000000	-68.00338900000000	762.69187999999997	-53.54222100000000	0.06975700000000	0.00000000000000	-0.09792300000000	0.00000000000000	-14.16012700000000	0.00000000000000	0.00000000000000	-19.24600300000000	0.00000000000000	
19.39492400000000	-1.75715400000000	136.55576099999999	-19.75168300000000	0.32005000000000	0.00000000000000	0.09420000000000	-68.89510300000001	758.63311499999998	-52.91744400000000	0.06895500000000	0.00000000000000	-0.09777400000000	0.00000000000000	-14.29794100000000	0.00000000000000	0.00000000000000	-19.29782000000000	0.00000000000000	
19.39659300000000	-0.53075700000000	143.86815799999999	-19.52065700000000	0.32290900000000	0.00000000000000	0.09469100000000	-69.78195500000000	754.39922500000000	-52.26679600000000	0.06817000000000	0.00000000000000	-0.09762100000000	0.00000000000000	-14.40815000000000	0.00000000000000	0.00000000000000	-19.34942000000000	0.00000000000000	
19.39826100000000	0.74617300000000	151.35343000000000	-19.24673900000000	0.32566400000000	0.00000000000000	0.09516100000000	-70.66182800000000	749.98764600000004	-51.59064300000000	0.06740100000000	0.00000000000000	-0.09746300000000	0.00000000000000	-14.49732700000000	0.00000000000000	0.00000000000000	-19.40039500000000	0.00000000000000	
19.39992700000000	2.06699300000000	159.03120200000001	-18.93728200000000	0.32832200000000	0.00000000000000	0.09561300000000	-71.53254000000000	745.39593700000000	-50.88940200000000	0.06664900000000	0.00000000000000	-0.09730000000000	0.00000000000000	-14.56978700000000	0.00000000000000	0.00000000000000	-19.45032400000000	0.00000000000000	
19.40159500000000	3.42770500000000	166.91188199999999	-18.59607100000000	0.33088700000000	0.00000000000000	0.09604800000000	-72.39185000000001	740.62179300000003	-50.16353900000000	0.06591600000000	0.00000000000000	-0.09713200000000	0.00000000000000	-14.62764900000000	0.00000000000000	0.00000000000000	-19.49876900000000	0.00000000000000	
19.40325900000000	4.82655700000000	174.99718799999999	-18.22375300000000	0.33336300000000	0.00000000000000	0.09646800000000	-73.23746600000000	735.66306499999996	-49.41357300000000	0.06520100000000	0.00000000000000	-0.09695900000000	0.00000000000000	-14.67104900000000	0.00000000000000	0.00000000000000	-19.54528000000000	0.00000000000000	
19.40492800000000	6.26354500000000	183.28119200000000	-17.81841000000000	0.33575300000000	0.00000000000000	0.09687400000000	-74.06704999999999	730.51777400000003	-48.64007300000000	0.06450700000000	0.00000000000000	-0.09678200000000	0.00000000000000	-14.69847200000000	0.00000000000000	0.00000000000000	-19.58939400000000	0.00000000000000	
19.40659100000000	7.73987000000000	191.75169099999999	-17.37623500000000	0.33806100000000	0.00000000000000	0.09726700000000	-74.87822300000001	725.18412899999998	-47.84366000000000	0.06383200000000	0.00000000000000	-0.09660000000000	0.00000000000000	-14.70714300000000	0.00000000000000	0.00000000000000	-19.63063500000000	0.00000000000000	
19.40826300000000	9.25740400000000	200.39177200000000	-16.89221600000000	0.34028800000000	0.00000000000000	0.09764700000000	-75.66857500000000	719.66054499999996	-47.02500100000000	0.06317800000000	0.00000000000000	-0.09641300000000	0.00000000000000	-14.69345200000000	0.00000000000000	0.00000000000000	-19.66852100000000	0.00000000000000	
19.40992700000000	10.81820200000000	209.18139400000001	-16.36079200000000	0.34243700000000	0.00000000000000	0.09801700000000	-76.43566500000000	713.94565599999999	-46.18481800000000	0.06254500000000	0.00000000000000	-0.09622100000000	0.00000000000000	-14.65336400000000	0.00000000000000	0.00000000000000	-19.70256200000000	0.00000000000000	
